<svg xmlns="http://www.w3.org/2000/svg" width="70px" height="70px" viewBox="0 0 70 70">
  <path fill="rgb(22.745098%,68.627451%,23.529412%)"
    d="M 35 0 C 54.332031 0 70 15.667969 70 35 C 70 54.332031 54.332031 70 35 70 C 15.667969 70 0 54.332031 0 35 C 0 15.667969 15.667969 0 35 0 Z M 35 0 " />
  <path fill="rgb(5.098039%,63.137255%,5.098039%)"
    d="M 53.492188 19.582031 L 56.125 19.582031 C 44.929688 32.011719 36.253906 42.261719 28.480469 57.25 C 24.4375 48.601562 20.832031 42.632812 12.765625 37.097656 L 15.777344 36.414062 C 21.804688 41.347656 24.976562 46.828125 28.480469 54.316406 C 35.632812 40.523438 43.554688 30.742188 53.492188 19.582031 Z M 53.492188 19.582031 " />
  <path fill="#fff"
    d="M 21.605469 32.164062 C 24.296875 33.714844 26.046875 35 28.128906 37.296875 C 33.535156 28.597656 39.402344 23.777344 47.03125 16.9375 L 47.773438 16.648438 L 56.125 16.648438 C 44.929688 29.078125 36.253906 39.328125 28.480469 54.316406 C 24.4375 45.667969 20.832031 39.699219 12.765625 34.160156 Z M 21.605469 32.164062 " />
</svg>
